<svg width="160" height="183" viewBox="0 0 160 183" fill="none" xmlns="http://www.w3.org/2000/svg">
<path fill-rule="evenodd" clip-rule="evenodd" d="M52.8117 62.4468C51.5356 62.4468 48.787 59.2445 44.9587 62.1266C42.8973 63.7278 40.6395 60.2052 42.7991 58.604C48.0999 54.6544 56.7382 57.9635 54.4805 61.5929C54.0878 62.1266 53.4007 62.4468 52.8117 62.4468ZM83.5366 62.4468C82.2605 62.4468 79.512 59.2445 75.6836 62.1266C73.6222 63.7278 71.3645 60.2052 73.5241 58.604C78.8248 54.6544 87.4632 57.9635 85.2054 61.5929C84.8128 62.1266 84.1256 62.4468 83.5366 62.4468ZM63.7078 86.2511C57.818 86.2511 49.7687 81.9813 52.5172 78.7789C53.2044 77.925 54.4805 77.925 55.2658 78.6722C59.5849 83.0488 67.9288 83.0488 72.1498 78.6722C74.0149 76.7508 76.7634 79.8464 74.8002 81.7678C71.9534 84.7567 67.8306 86.2511 63.7078 86.2511ZM29.1545 55.4016C25.3262 55.4016 23.3629 38.6425 24.7372 28.3949C26.5041 15.3719 33.7681 -0.106197 58.1125 0.000549078C60.7629 0.000549078 65.1802 2.88269 66.9472 5.97831C75.3891 5.65808 93.0584 4.37713 101.01 16.6529C106.31 24.8723 105.918 37.4683 99.7335 54.0139C98.7519 56.6826 95.1199 55.0814 96.1015 52.4127C101.795 37.2548 102.286 26.0465 97.7702 19.108C90.5062 7.89974 73.1314 10.4616 65.671 10.3549C64.7876 10.2481 64.0023 9.60767 63.8059 8.7537C63.4133 7.04577 59.5849 4.27038 58.1125 4.27038C18.2584 4.05689 29.2527 49.8508 30.5288 51.7723C32.0012 53.9072 30.3324 55.4016 29.1545 55.4016ZM36.1241 142.933C35.0443 142.933 34.1608 141.972 34.1608 140.798V113.471C34.1608 110.696 38.0873 110.696 38.0873 113.471V140.798C38.0873 141.972 37.2038 142.933 36.1241 142.933ZM27.3876 142.933C26.3078 142.933 25.4243 141.972 25.4243 140.798V115.499C25.4243 112.724 29.3508 112.724 29.3508 115.499V140.798C29.3508 141.972 28.4674 142.933 27.3876 142.933ZM100.126 142.933C99.0464 142.933 98.1629 141.972 98.1629 140.798V115.499C98.1629 112.724 102.089 112.724 102.089 115.499V140.798C102.089 141.972 101.206 142.933 100.126 142.933ZM91.2915 142.933C90.2117 142.933 89.3282 141.972 89.3282 140.798V113.471C89.3282 110.696 93.2548 110.696 93.2548 113.471V140.798C93.2548 141.972 92.3713 142.933 91.2915 142.933Z" fill="black"/>
<path fill-rule="evenodd" clip-rule="evenodd" d="M109.844 182.216C108.764 182.216 107.881 181.255 107.881 180.081V146.883C107.881 144.748 106.31 142.933 104.347 142.933H23.1664C21.2032 142.933 19.5344 144.748 19.5344 146.883V180.081C19.5344 182.856 15.6079 182.856 15.6079 180.081V146.883C15.6079 142.293 19.0436 138.663 23.1664 138.663H104.347C108.47 138.663 111.807 142.293 111.807 146.883V180.081C111.807 181.255 110.924 182.216 109.844 182.216ZM98.3591 72.4809C97.2793 72.4809 94.9234 72.8011 94.9234 70.346C94.9234 67.8908 97.2793 68.2111 98.3591 68.2111C103.267 68.2111 102.973 63.0873 102.973 60.4186C102.973 57.4298 100.911 55.4016 97.9664 55.4016C95.6105 55.4016 94.8252 51.1318 98.3591 51.1318C103.071 51.1318 106.899 55.2948 106.899 60.4186V63.194C106.899 68.3178 103.071 72.4809 98.3591 72.4809ZM30.6268 72.4809H29.0562C24.3444 72.4809 20.516 68.3178 20.516 63.194V60.4186C20.516 51.452 31.5103 48.6766 31.5103 53.2667C31.5103 58.2837 24.4426 50.8115 24.4426 63.194C24.4426 65.9694 26.504 68.2111 29.0562 68.2111C30.2342 68.2111 32.5901 67.8908 32.5901 70.346C32.5901 71.5202 31.7066 72.4809 30.6268 72.4809ZM145.575 91.8019C144.888 91.8019 144.299 91.3749 143.907 90.7344L121.035 47.6091C119.759 45.154 123.194 43.0191 124.47 45.4742L147.342 88.5995C148.029 89.9872 147.146 91.8019 145.575 91.8019Z" fill="black"/>
<path fill-rule="evenodd" clip-rule="evenodd" d="M151.269 95.4312C140.274 95.4312 140.274 77.2845 151.269 77.2845C162.361 77.2845 162.165 95.4312 151.269 95.4312ZM151.269 81.5543C145.477 81.5543 145.477 91.1614 151.269 91.1614C156.962 91.1614 157.158 81.5543 151.269 81.5543ZM122.311 91.8019C120.838 91.8019 119.857 89.9872 120.642 88.5995L143.416 45.4742C144.79 43.0191 148.127 45.154 146.851 47.6091L123.979 90.7344C123.587 91.3749 122.998 91.8019 122.311 91.8019Z" fill="black"/>
<path fill-rule="evenodd" clip-rule="evenodd" d="M116.617 95.4317C105.623 95.4317 105.623 77.2849 116.617 77.2849C122.998 77.2849 127.121 84.8639 123.881 90.9484C122.409 93.7238 119.562 95.4317 116.617 95.4317ZM116.617 81.5547C110.826 81.5547 110.826 91.1619 116.617 91.1619C122.507 91.1619 122.409 81.5547 116.617 81.5547Z" fill="black"/>
<path fill-rule="evenodd" clip-rule="evenodd" d="M100.126 142.933H23.1664C21.2032 142.933 19.5344 144.748 19.5344 146.883V177.946H107.881V146.883C107.881 142.186 102.973 142.933 100.126 142.933Z" fill="#EA8653"/>
<path fill-rule="evenodd" clip-rule="evenodd" d="M111.807 146.883V177.946H123.489V142.933C123.489 129.163 112.789 121.264 102.089 118.168V138.663H104.347C108.47 138.663 111.807 142.293 111.807 146.883Z" fill="#F4F4F4"/>
<path fill-rule="evenodd" clip-rule="evenodd" d="M98.1629 138.663V117.207L93.2548 116.14V138.663H98.1629Z" fill="#EA8653"/>
<path fill-rule="evenodd" clip-rule="evenodd" d="M89.3282 138.663V115.179L76.6652 112.297H50.7503L38.0873 115.179V138.663H89.3282Z" fill="#F4F4F4"/>
<path fill-rule="evenodd" clip-rule="evenodd" d="M34.1607 138.663V116.14L29.3507 117.207V138.663H34.1607Z" fill="#EA8653"/>
<path fill-rule="evenodd" clip-rule="evenodd" d="M25.4243 138.663V118.168C14.6264 121.264 3.92664 129.163 3.92664 142.933V177.946H15.608V146.883C15.608 142.293 19.0437 138.663 23.1665 138.663H25.4243Z" fill="#F4F4F4"/>
<path fill-rule="evenodd" clip-rule="evenodd" d="M70.1865 34.2658C75.9781 31.1702 86.0889 31.4904 89.5246 46.1146C94.7272 42.6987 96.6904 39.9233 98.4574 45.4741C101.795 33.8388 101.599 24.9789 97.7702 19.1079C90.5062 7.89957 73.1314 10.4615 65.671 10.3547C64.7876 10.248 64.0023 9.60751 63.8059 8.75354C63.4133 7.04561 59.5849 4.27022 58.1125 4.27022C26.4059 4.05673 26.8967 32.9848 29.0563 45.7943C30.5288 40.457 31.2159 41.8447 38.5781 46.0078C39.8542 43.0189 41.523 37.8951 43.0936 37.4682C45.155 36.9344 47.3146 41.311 55.3639 41.311C64.0023 41.311 68.4196 35.2265 70.1865 34.2658Z" fill="#010101"/>
<path fill-rule="evenodd" clip-rule="evenodd" d="M100.224 59.1378C100.224 62.2334 99.9299 65.2223 99.3409 68.1044C103.169 67.464 102.973 62.8739 102.973 60.4187C102.973 58.1771 101.893 56.5759 100.126 55.8287C100.224 57.2164 100.224 58.4973 100.224 59.1378ZM28.0748 68.1044C27.2895 64.1548 26.995 59.885 27.2895 55.7219C24.2464 56.7894 24.4427 60.8457 24.4427 63.1941C24.4427 65.6493 26.0134 67.5707 28.0748 68.1044ZM50.1614 108.134H77.2543L75.9782 98.2067C68.1252 101.409 59.3887 101.409 51.4375 98.2067L50.1614 108.134Z" fill="#FFB091"/>
<path fill-rule="evenodd" clip-rule="evenodd" d="M63.7076 100.555C38.2835 100.555 20.4178 71.8404 29.6451 43.7662C30.0378 42.4853 31.3139 41.9515 32.3937 42.4853L38.5779 46.0079C39.8541 43.019 41.5228 37.8952 43.0934 37.4682C45.1549 36.9345 47.3144 41.3111 55.3638 41.3111C64.0021 41.3111 68.4194 35.2266 70.1863 34.2658C75.978 31.1702 86.0887 31.4905 89.5244 46.1146C91.8803 44.5134 95.1197 41.8448 96.5921 42.3785C99.2425 43.446 100.224 56.3622 100.224 59.1376C100.224 81.9812 83.831 100.555 63.7076 100.555ZM32.6882 47.5023C26.0131 72.0538 41.7192 96.2851 63.7076 96.2851C85.6961 96.2851 101.304 72.1606 94.8252 47.6091C92.4693 49.1035 86.874 54.0138 86.1869 49.744C84.9108 41.3111 81.6714 37.0412 76.5669 37.0412C74.5055 37.0412 72.7386 37.7885 72.1496 38.002C66.947 43.019 61.2535 45.5809 55.3638 45.5809C50.4556 45.5809 46.6273 43.873 44.3696 42.592C39.7559 53.1598 41.7192 52.4126 32.6882 47.5023ZM125.452 182.215H1.96325C0.883465 182.215 0 181.255 0 180.081V142.933C0 128.522 10.3071 117.207 26.7984 113.471L50.5538 108.027L77.2541 108.134L100.617 113.471C117.108 117.207 127.415 128.522 127.415 142.933V180.081C127.415 181.255 126.532 182.215 125.452 182.215ZM3.92651 177.946H123.489V142.933C123.489 128.202 111.317 120.196 99.8315 117.634L76.6651 112.297H50.7501L27.5837 117.634C16.1968 120.196 3.92651 128.202 3.92651 142.933V177.946Z" fill="black"/>
<path fill-rule="evenodd" clip-rule="evenodd" d="M63.7078 96.2852C83.8312 96.2852 98.6537 76.1102 96.0033 53.8003C95.5125 51.2384 95.6107 50.598 94.8254 47.6091C92.4695 49.1035 86.8742 54.0138 86.1871 49.744C84.911 41.3111 81.6716 37.0413 76.5671 37.0413C74.5057 37.0413 72.7388 37.7885 72.1498 38.002C66.9472 43.019 61.2537 45.5809 55.364 45.5809C50.4558 45.5809 46.6275 43.873 44.3698 42.592C39.7561 53.1599 41.7194 52.4127 32.6884 47.5023L31.4123 53.6936C28.7619 76.0035 43.5845 96.2852 63.7078 96.2852ZM74.8002 81.7677C65.4747 91.2681 48.8852 83.0487 52.5173 78.7789C53.2044 77.9249 54.4805 77.9249 55.2658 78.6721C59.585 83.0487 67.9288 83.0487 72.1498 78.6721C74.0149 76.7507 76.7635 79.8463 74.8002 81.7677ZM83.5367 62.4468C82.2606 62.4468 79.512 59.2444 75.6837 62.1265C73.6222 63.7277 71.3645 60.2051 73.5241 58.6039C78.8249 54.6543 87.4632 57.9634 85.2055 61.5928C84.8128 62.1265 84.1257 62.4468 83.5367 62.4468ZM52.8118 62.4468C51.5356 62.4468 48.7871 59.2444 44.9587 62.1265C42.8973 63.7277 40.6396 60.2051 42.7992 58.6039C48.0999 54.6543 56.7383 57.9634 54.4805 61.5928C54.0879 62.1265 53.4007 62.4468 52.8118 62.4468Z" fill="#FFC3A1"/>
<path fill-rule="evenodd" clip-rule="evenodd" d="M47.8052 112.937C46.6273 112.937 45.7438 111.763 45.9401 110.482L47.9034 94.8974C48.0997 93.5097 49.474 92.6557 50.7501 93.1895C58.9958 97.3525 68.4194 97.3525 76.7632 93.1895C77.9412 92.6557 79.3154 93.5097 79.5118 94.8974L81.5732 110.482C82.064 114.325 76.9595 112.404 76.665 112.297H50.7501L47.8052 112.937ZM51.4372 98.2065L50.1611 108.134H77.254L75.9779 98.2065C68.1249 101.409 59.3884 101.409 51.4372 98.2065Z" fill="black"/>
</svg>
