<svg width="51" height="50" viewBox="0 0 51 50" fill="none" xmlns="http://www.w3.org/2000/svg">
<path d="M35.3146 0H35.6774C35.9685 3.52611 34.5957 6.1608 32.9273 8.06877C31.2902 9.96355 29.0485 11.8013 25.4228 11.5224C25.1809 8.04681 26.5559 5.60752 28.2221 3.70395C29.7674 1.92992 32.6003 0.351293 35.3146 0ZM46.2904 36.7014V36.8002C45.2714 39.8257 43.818 42.4187 42.0443 44.825C40.4251 47.0096 38.4409 49.9495 34.8981 49.9495C31.8367 49.9495 29.8032 48.0196 26.6657 47.9669C23.3467 47.9142 21.5216 49.5806 18.487 50H17.4524C15.2241 49.6838 13.4258 47.9537 12.1157 46.3949C8.25255 41.7885 5.26731 35.8385 4.71191 28.2242V25.9869C4.94706 20.5375 7.64789 16.1068 11.2378 13.9595C13.1324 12.8178 15.7369 11.8452 18.6371 12.2799C19.88 12.4687 21.1498 12.8859 22.2628 13.2986C23.3176 13.696 24.6367 14.4008 25.8863 14.3635C26.7329 14.3393 27.5749 13.9068 28.4282 13.6016C30.9274 12.7168 33.3774 11.7025 36.6068 12.1789C40.4878 12.7541 43.2424 14.4447 44.9444 17.0531C41.6613 19.1016 39.0658 22.1886 39.5092 27.4601C39.9033 32.2487 42.743 35.0503 46.2904 36.7014Z" fill="white"/>
</svg>
