<svg width="51" height="52" viewBox="0 0 51 52" fill="none" xmlns="http://www.w3.org/2000/svg">
<g clip-path="url(#clip0_6588_1391)">
<path d="M35.3146 0.5H35.6774C35.9685 4.09663 34.5957 6.78402 32.9273 8.73014C31.2902 10.6628 29.0485 12.5373 25.4228 12.2529C25.1809 8.70775 26.5559 6.21967 28.2221 4.27803C29.7674 2.46852 32.6003 0.858319 35.3146 0.5ZM46.2904 37.9354V38.0362C45.2714 41.1222 43.818 43.767 42.0443 46.2215C40.4251 48.4498 38.4409 51.4485 34.8981 51.4485C31.8367 51.4485 29.8032 49.48 26.6657 49.4262C23.3467 49.3725 21.5216 51.0723 18.487 51.5H17.4524C15.2241 51.1775 13.4258 49.4128 12.1157 47.8228C8.25255 43.1243 5.26731 37.0553 4.71191 29.2887V27.0067C4.94706 21.4482 7.64789 16.9289 11.2378 14.7387C13.1324 13.5742 15.7369 12.5821 18.6371 13.0255C19.88 13.2181 21.1498 13.6436 22.2628 14.0646C23.3176 14.47 24.6367 15.1888 25.8863 15.1508C26.7329 15.1261 27.5749 14.685 28.4282 14.3737C30.9274 13.4712 33.3774 12.4365 36.6068 12.9225C40.4878 13.5092 43.2424 15.2336 44.9444 17.8942C41.6613 19.9836 39.0658 23.1323 39.5092 28.5094C39.9033 33.3937 42.743 36.2513 46.2904 37.9354Z" fill="black"/>
</g>
<defs>
<clipPath id="clip0_6588_1391">
<rect width="51" height="51" fill="white" transform="translate(0 0.5)"/>
</clipPath>
</defs>
</svg>
