<svg width="94" height="94" viewBox="0 0 94 94" fill="none" xmlns="http://www.w3.org/2000/svg">
<rect width="93.655" height="94" rx="46.8275" fill="#EA8653"/>
<g clip-path="url(#clip0_6357_8710)">
<path d="M23.1663 29.8655L27.7987 40.7067L23.1663 49.6252L19.0831 51.3379L15.1988 49.6252V47.92L15 36.8338C15 32.9838 18.5662 29.8633 22.9662 29.8633C23.0325 29.8633 23.1 29.8644 23.1663 29.8655Z" fill="#AA99FF"/>
<path d="M23.1663 50.7187V29.8652C25.2875 29.9112 27.2025 30.6823 28.6013 31.904C30.0413 33.1662 30.9338 34.9085 30.9338 36.8335L30.9175 49.6249L23.1663 50.7187Z" fill="#9966FF"/>
<path d="M23.1663 49.625L27.4789 61.9686L23.1663 75H20.3C19.28 75 18.4463 74.2858 18.425 73.3933L17.9838 53.7091L23.1663 49.625Z" fill="#8C4D62"/>
<path d="M30.9175 49.625C30.8063 52.0498 30.6188 55.5663 30.355 57.9834C30.2313 59.1439 28.8063 72.0042 28.6413 73.5169C28.5475 74.358 27.74 75 26.775 75H23.1663V49.625H30.9175Z" fill="#66283D"/>
<path d="M15.1987 49.6248V50.7186C15.1975 52.6469 17.03 54.2153 19.2337 54.2033C21.4125 54.1792 23.1662 52.6272 23.1662 50.7186V49.6248H15.1987ZM23.1662 19.1792L26.6137 24.666L23.1662 29.7536C20.1875 29.1006 18.5187 26.6517 18.5187 24.4609C18.5187 21.9256 20.4912 19.795 23.1662 19.1792Z" fill="#FFD5CC"/>
<path d="M31 24.4611C31 27.4766 28.2063 29.9211 24.7588 29.9211C24.1925 29.9211 23.6613 29.862 23.1663 29.7537V19.1794C23.675 19.0623 24.2088 19 24.7588 19C28.2063 19 31 21.4445 31 24.4611Z" fill="#FFBFB3"/>
<path d="M47.1662 29.8655L51.7988 40.7067L47.1662 49.6252L43.0831 51.3379L39.1987 49.6252V47.92L39 36.8338C39 32.9838 42.5662 29.8633 46.9662 29.8633C47.0325 29.8633 47.1 29.8644 47.1662 29.8655Z" fill="#FFE14D"/>
<path d="M47.1663 50.7187V29.8652C49.2875 29.9112 51.2025 30.6823 52.6013 31.904C54.0413 33.1662 54.9338 34.9085 54.9338 36.8335L54.9175 49.6249L47.1663 50.7187Z" fill="#FFC34D"/>
<path d="M47.1663 49.625L51.4789 61.9686L47.1663 75H44.3C43.28 75 42.4463 74.2858 42.425 73.3933L41.9838 53.7091L47.1663 49.625Z" fill="#8C4D62"/>
<path d="M54.9175 49.625C54.8063 52.0498 54.6188 55.5663 54.355 57.9834C54.2313 59.1439 52.8063 72.0042 52.6413 73.5169C52.5475 74.358 51.74 75 50.775 75H47.1663V49.625H54.9175Z" fill="#66283D"/>
<path d="M39.1987 49.6248V50.7186C39.1975 52.6469 41.03 54.2153 43.2337 54.2033C45.4125 54.1792 47.1662 52.6272 47.1662 50.7186V49.6248H39.1987ZM47.1662 19.1792L50.6137 24.666L47.1662 29.7536C44.1875 29.1006 42.5187 26.6517 42.5187 24.4609C42.5187 21.9256 44.4912 19.795 47.1662 19.1792Z" fill="#E99A8B"/>
<path d="M55 24.4611C55 27.4766 52.2063 29.9211 48.7588 29.9211C48.1925 29.9211 47.6613 29.862 47.1663 29.7537V19.1794C47.675 19.0623 48.2088 19 48.7588 19C52.2063 19 55 21.4445 55 24.4611Z" fill="#D58678"/>
<path d="M71.1662 29.8655L75.7988 40.7067L71.1662 49.6252L67.0831 51.3379L63.1987 49.6252V47.92L63 36.8338C63 32.9838 66.5663 29.8633 70.9663 29.8633C71.0325 29.8633 71.1 29.8644 71.1662 29.8655Z" fill="#FF6666"/>
<path d="M71.1663 50.7187V29.8652C73.2875 29.9112 75.2025 30.6823 76.6013 31.904C78.0413 33.1662 78.9338 34.9085 78.9338 36.8335L78.9175 49.6249L71.1663 50.7187Z" fill="#E62E6B"/>
<path d="M71.1663 49.625L75.4789 61.9686L71.1663 75H68.3C67.28 75 66.4463 74.2858 66.425 73.3933L65.9838 53.7091L71.1663 49.625Z" fill="#AA99FF"/>
<path d="M78.9175 49.625C78.8063 52.0498 78.6188 55.5663 78.355 57.9834C78.2313 59.1439 76.8063 72.0042 76.6413 73.5169C76.5475 74.358 75.74 75 74.775 75H71.1663V49.625H78.9175Z" fill="#9966FF"/>
<path d="M63.1987 49.6248V50.7186C63.1975 52.6469 65.03 54.2153 67.2337 54.2033C69.4125 54.1792 71.1662 52.6272 71.1662 50.7186V49.6248H63.1987ZM71.1662 19.1792L74.6137 24.666L71.1662 29.7536C68.1875 29.1006 66.5187 26.6517 66.5187 24.4609C66.5187 21.9256 68.4912 19.795 71.1662 19.1792Z" fill="#FFD5CC"/>
<path d="M79 24.4611C79 27.4766 76.2063 29.9211 72.7588 29.9211C72.1925 29.9211 71.6613 29.862 71.1663 29.7537V19.1794C71.675 19.0623 72.2088 19 72.7588 19C76.2063 19 79 21.4445 79 24.4611Z" fill="#FFBFB3"/>
</g>
<defs>
<clipPath id="clip0_6357_8710">
<rect width="64" height="56" fill="white" transform="translate(15 19)"/>
</clipPath>
</defs>
</svg>
