<svg width="94" height="94" viewBox="0 0 94 94" fill="none" xmlns="http://www.w3.org/2000/svg">
<rect width="93.655" height="94" rx="46.8275" fill="#EA8653"/>
<path d="M49.625 30.375H43.5V72.375H49.625C61.223 72.375 70.625 62.973 70.625 51.375C70.625 39.777 61.223 30.375 49.625 30.375Z" fill="#F7B030"/>
<path d="M70.625 51.375H64.5C64.2679 51.375 64.0454 51.2828 63.8813 51.1187C63.7172 50.9546 63.625 50.7321 63.625 50.5C63.625 50.2679 63.7172 50.0454 63.8813 49.8813C64.0454 49.7172 64.2679 49.625 64.5 49.625H70.5528C70.6009 50.2025 70.625 50.7858 70.625 51.375ZM69.4295 44.375H62.75C62.5179 44.375 62.2954 44.2828 62.1313 44.1187C61.9672 43.9546 61.875 43.7321 61.875 43.5C61.875 43.2679 61.9672 43.0454 62.1313 42.8813C62.2954 42.7172 62.5179 42.625 62.75 42.625H68.7197C68.9822 43.1948 69.2188 43.7782 69.4295 44.375ZM65.2766 37.375H58.375C58.1429 37.375 57.9204 37.2828 57.7563 37.1187C57.5922 36.9546 57.5 36.7321 57.5 36.5C57.5 36.2679 57.5922 36.0454 57.7563 35.8813C57.9204 35.7172 58.1429 35.625 58.375 35.625H63.5145C64.136 36.173 64.7243 36.7573 65.2766 37.375ZM69.9633 56.625C69.8102 57.2189 69.6322 57.8022 69.4295 58.375H63.625C63.3929 58.375 63.1704 58.2828 63.0063 58.1187C62.8422 57.9546 62.75 57.7321 62.75 57.5C62.75 57.2679 62.8422 57.0454 63.0063 56.8813C63.1704 56.7172 63.3929 56.625 63.625 56.625H69.9633ZM66.6831 63.625C66.246 64.2332 65.7765 64.8173 65.2766 65.375H59.25C59.0179 65.375 58.7954 65.2828 58.6313 65.1187C58.4672 64.9546 58.375 64.7321 58.375 64.5C58.375 64.2679 58.4672 64.0454 58.6313 63.8813C58.7954 63.7172 59.0179 63.625 59.25 63.625H66.6831Z" fill="#EBA72E"/>
<path d="M44.375 72.375C55.973 72.375 65.375 62.973 65.375 51.375C65.375 39.777 55.973 30.375 44.375 30.375C32.777 30.375 23.375 39.777 23.375 51.375C23.375 62.973 32.777 72.375 44.375 72.375Z" fill="#FFD33A"/>
<path d="M23.2656 26.875C25.3448 25.5855 25.7753 23.6655 25.8906 21.625C25.8727 23.5542 26.5847 25.7632 28.5156 26.875C26.7125 28.1154 26.0571 30.5003 25.8906 32.125C25.7242 30.5003 25.0688 28.1154 23.2656 26.875ZM50.5 30.375C52.5792 29.0855 53.0097 27.1655 53.125 25.125C53.1071 27.0542 53.8191 29.2632 55.75 30.375C53.9468 31.6154 53.2915 34.0003 53.125 35.625C52.9585 34.0003 52.3032 31.6154 50.5 30.375ZM28.625 67.125C30.7042 65.8355 31.1347 63.9155 31.25 61.875C31.2321 63.8042 31.9441 66.0132 33.875 67.125C32.0718 68.3654 31.4165 70.7503 31.25 72.375C31.0835 70.7503 30.4282 68.3654 28.625 67.125Z" fill="#EB423F"/>
<path d="M44.375 50.5C43.8558 50.5 43.3483 50.346 42.9166 50.0576C42.4849 49.7692 42.1485 49.3592 41.9498 48.8795C41.7511 48.3999 41.6992 47.8721 41.8004 47.3629C41.9017 46.8537 42.1517 46.386 42.5188 46.0188C42.886 45.6517 43.3537 45.4017 43.8629 45.3004C44.3721 45.1992 44.8999 45.2511 45.3795 45.4498C45.8592 45.6485 46.2692 45.9849 46.5576 46.4166C46.846 46.8483 47 47.3558 47 47.875C47 48.1071 47.0922 48.3296 47.2563 48.4937C47.4204 48.6578 47.6429 48.75 47.875 48.75C48.1071 48.75 48.3296 48.6578 48.4937 48.4937C48.6578 48.3296 48.75 48.1071 48.75 47.875C48.7487 46.8669 48.3999 45.89 47.7623 45.1091C47.1248 44.3282 46.2375 43.791 45.25 43.588V41.75C45.25 41.5179 45.1578 41.2954 44.9937 41.1313C44.8296 40.9672 44.6071 40.875 44.375 40.875C44.1429 40.875 43.9204 40.9672 43.7563 41.1313C43.5922 41.2954 43.5 41.5179 43.5 41.75V43.588C42.4373 43.8045 41.4929 44.408 40.85 45.2813C40.2071 46.1547 39.9115 47.2357 40.0205 48.3147C40.1294 49.3937 40.6353 50.3938 41.4399 51.1209C42.2445 51.848 43.2905 52.2504 44.375 52.25C44.8942 52.25 45.4017 52.404 45.8334 52.6924C46.265 52.9808 46.6015 53.3908 46.8002 53.8705C46.9989 54.3501 47.0508 54.8779 46.9496 55.3871C46.8483 55.8963 46.5983 56.364 46.2312 56.7312C45.864 57.0983 45.3963 57.3483 44.8871 57.4496C44.3779 57.5508 43.8501 57.4989 43.3705 57.3002C42.8908 57.1015 42.4808 56.765 42.1924 56.3334C41.904 55.9017 41.75 55.3942 41.75 54.875C41.75 54.6429 41.6578 54.4204 41.4937 54.2563C41.3296 54.0922 41.1071 54 40.875 54C40.6429 54 40.4204 54.0922 40.2563 54.2563C40.0922 54.4204 40 54.6429 40 54.875C40.0012 55.8832 40.3499 56.8602 40.9875 57.6412C41.6251 58.4222 42.5124 58.9595 43.5 59.1625V61C43.5 61.2321 43.5922 61.4546 43.7563 61.6187C43.9204 61.7828 44.1429 61.875 44.375 61.875C44.6071 61.875 44.8296 61.7828 44.9937 61.6187C45.1578 61.4546 45.25 61.2321 45.25 61V59.1625C46.3133 58.9466 47.2584 58.3433 47.9018 57.4698C48.5453 56.5963 48.8413 55.5148 48.7322 54.4353C48.6232 53.3559 48.117 52.3554 47.3118 51.6282C46.5066 50.901 45.46 50.4989 44.375 50.5Z" fill="#EBA72E"/>
<path d="M44.375 68C42.1541 68.0042 39.9551 67.5606 37.9095 66.6957C37.6957 66.6054 37.5266 66.4339 37.4393 66.2189C37.352 66.0038 37.3537 65.763 37.444 65.5492C37.5343 65.3354 37.7058 65.1663 37.9208 65.0789C38.1358 64.9916 38.3767 64.9933 38.5905 65.0836C40.4207 65.8572 42.388 66.2539 44.375 66.25C52.577 66.25 59.25 59.5771 59.25 51.375C59.2548 48.4329 58.3828 45.5561 56.7453 43.1117C56.6162 42.9188 56.5691 42.6825 56.6142 42.4549C56.6593 42.2272 56.793 42.0267 56.9859 41.8977C57.1788 41.7686 57.4151 41.7214 57.6428 41.7665C57.8705 41.8117 58.0709 41.9454 58.2 42.1383C60.0304 44.8706 61.0052 48.0863 61 51.375C61 60.542 53.5421 68 44.375 68ZM29.2402 56.625C29.0505 56.6249 28.866 56.5632 28.7144 56.449C28.5628 56.3349 28.4525 56.1747 28.3999 55.9924C27.9677 54.4914 27.749 52.937 27.75 51.375C27.75 42.208 35.208 34.75 44.375 34.75C45.303 34.7498 46.2295 34.8267 47.1448 34.9797C47.2587 34.998 47.3679 35.0387 47.4661 35.0994C47.5642 35.1601 47.6493 35.2397 47.7166 35.3334C47.7839 35.4272 47.832 35.5333 47.8581 35.6457C47.8842 35.7581 47.8878 35.8746 47.8687 35.9884C47.8496 36.1022 47.8081 36.2111 47.7468 36.3088C47.6854 36.4065 47.6053 36.4912 47.5111 36.5578C47.417 36.6245 47.3105 36.6718 47.1979 36.6972C47.0853 36.7225 46.9689 36.7254 46.8552 36.7055C46.0356 36.5686 45.206 36.4998 44.375 36.5C36.1729 36.5 29.5 43.1729 29.5 51.375C29.4989 52.7729 29.6946 54.164 30.0813 55.5074C30.1188 55.6377 30.1255 55.775 30.1009 55.9084C30.0763 56.0418 30.021 56.1676 29.9395 56.2759C29.8579 56.3843 29.7523 56.4722 29.631 56.5328C29.5096 56.5934 29.3759 56.6249 29.2402 56.625Z" fill="#EBA72E"/>
</svg>
