<svg width="94" height="94" viewBox="0 0 94 94" fill="none" xmlns="http://www.w3.org/2000/svg">
<rect width="93.655" height="94" rx="46.8275" fill="#EA8653"/>
<g clip-path="url(#clip0_6357_8642)">
<path d="M69.2069 34.4482V44.6731L43.8717 68.2413H22.8621C21.8378 68.2413 20.8555 67.8344 20.1312 67.1102C19.4069 66.3859 19 65.4036 19 64.3793V34.4482H69.2069Z" fill="#ECF0F1"/>
<path d="M48.931 38.3105H45.069C44.5357 38.3105 44.1035 38.7428 44.1035 39.2761V42.1726C44.1035 42.7059 44.5357 43.1381 45.069 43.1381H48.931C49.4643 43.1381 49.8966 42.7059 49.8966 42.1726V39.2761C49.8966 38.7428 49.4643 38.3105 48.931 38.3105Z" fill="#95A5A5"/>
<path d="M38.3104 47.9653H34.4483C33.9151 47.9653 33.4828 48.3976 33.4828 48.9308V51.8274C33.4828 52.3606 33.9151 52.7929 34.4483 52.7929H38.3104C38.8436 52.7929 39.2759 52.3606 39.2759 51.8274V48.9308C39.2759 48.3976 38.8436 47.9653 38.3104 47.9653Z" fill="#95A5A5"/>
<path d="M38.3104 57.6206H34.4483C33.9151 57.6206 33.4828 58.0529 33.4828 58.5861V61.4827C33.4828 62.0159 33.9151 62.4482 34.4483 62.4482H38.3104C38.8436 62.4482 39.2759 62.0159 39.2759 61.4827V58.5861C39.2759 58.0529 38.8436 57.6206 38.3104 57.6206Z" fill="#95A5A5"/>
<path d="M69.2069 25.7586V34.4482H19V25.7586C19 24.7343 19.4069 23.7519 20.1312 23.0277C20.8555 22.3034 21.8378 21.8965 22.8621 21.8965H65.3448C66.3691 21.8965 67.3514 22.3034 68.0757 23.0277C68.8 23.7519 69.2069 24.7343 69.2069 25.7586Z" fill="#E64C3C"/>
<path d="M58.5862 21.8965C59.4265 22.2251 60.1504 22.7959 60.6661 23.5364C61.1817 24.2769 61.466 25.1537 61.4827 26.0559C61.4051 27.2835 60.8626 28.4354 59.9658 29.2773C59.069 30.1191 57.8852 30.5877 56.6552 30.5877C55.4251 30.5877 54.2413 30.1191 53.3445 29.2773C52.4477 28.4354 51.9052 27.2835 51.8276 26.0559C51.8444 25.1537 52.1286 24.2769 52.6442 23.5364C53.1599 22.7959 53.8838 22.2251 54.7241 21.8965H58.5862ZM33.4827 21.8965C34.3231 22.2251 35.047 22.7959 35.5626 23.5364C36.0783 24.2769 36.3625 25.1537 36.3793 26.0559C36.3382 27.2963 35.8069 28.4697 34.9019 29.319C33.997 30.1682 32.7922 30.6239 31.5517 30.5861C30.3112 30.6239 29.1064 30.1682 28.2015 29.319C27.2965 28.4697 26.7652 27.2963 26.7241 26.0559C26.7409 25.1537 27.0251 24.2769 27.5408 23.5364C28.0564 22.7959 28.7803 22.2251 29.6207 21.8965H33.4827Z" fill="#C03A2B"/>
<path d="M57.6207 74.9998C67.219 74.9998 75 67.2189 75 57.6205C75 48.0222 67.219 40.2412 57.6207 40.2412C48.0224 40.2412 40.2414 48.0222 40.2414 57.6205C40.2414 67.2189 48.0224 74.9998 57.6207 74.9998Z" fill="#F0C419"/>
<path d="M27.6896 38.3105H23.8276C23.2943 38.3105 22.8621 38.7428 22.8621 39.2761V42.1726C22.8621 42.7059 23.2943 43.1381 23.8276 43.1381H27.6896C28.2229 43.1381 28.6552 42.7059 28.6552 42.1726V39.2761C28.6552 38.7428 28.2229 38.3105 27.6896 38.3105Z" fill="#95A5A5"/>
<path d="M38.3103 38.3105H34.4482C33.915 38.3105 33.4827 38.7428 33.4827 39.2761V42.1726C33.4827 42.7059 33.915 43.1381 34.4482 43.1381H38.3103C38.8436 43.1381 39.2758 42.7059 39.2758 42.1726V39.2761C39.2758 38.7428 38.8436 38.3105 38.3103 38.3105Z" fill="#95A5A5"/>
<path d="M27.6896 47.9658H23.8276C23.2943 47.9658 22.8621 48.3981 22.8621 48.9313V51.8279C22.8621 52.3611 23.2943 52.7934 23.8276 52.7934H27.6896C28.2229 52.7934 28.6552 52.3611 28.6552 51.8279V48.9313C28.6552 48.3981 28.2229 47.9658 27.6896 47.9658Z" fill="#95A5A5"/>
<path d="M27.6896 57.6211H23.8276C23.2943 57.6211 22.8621 58.0534 22.8621 58.5866V61.4832C22.8621 62.0164 23.2943 62.4487 23.8276 62.4487H27.6896C28.2229 62.4487 28.6552 62.0164 28.6552 61.4832V58.5866C28.6552 58.0534 28.2229 57.6211 27.6896 57.6211Z" fill="#95A5A5"/>
<path d="M48.6481 57.3376C48.824 57.1555 48.9213 56.9116 48.9191 56.6584C48.9169 56.4053 48.8154 56.1631 48.6364 55.9841C48.4573 55.8051 48.2152 55.7035 47.962 55.7013C47.7089 55.6991 47.465 55.7964 47.2829 55.9723L47.1158 56.1394C47.4347 53.8663 48.482 51.7578 50.1005 50.1303C51.719 48.5027 53.8216 47.4437 56.0929 47.1122C58.3642 46.7806 60.6817 47.1944 62.698 48.2913C64.7142 49.3883 66.3205 51.1094 67.2758 53.1965C67.3874 53.4216 67.5824 53.5945 67.8193 53.6782C68.0562 53.762 68.3165 53.75 68.5448 53.6449C68.7731 53.5398 68.9514 53.3499 69.0418 53.1154C69.1323 52.881 69.1278 52.6205 69.0292 52.3893C67.8817 49.8879 65.9439 47.833 63.5141 46.5409C61.0843 45.2488 58.2972 44.791 55.5818 45.238C52.8663 45.6851 50.373 47.0122 48.4857 49.0151C46.5984 51.018 45.4216 53.5856 45.1365 56.3228L44.7861 55.9723C44.604 55.7964 44.3601 55.6991 44.1069 55.7013C43.8538 55.7035 43.6116 55.8051 43.4326 55.9841C43.2536 56.1631 43.152 56.4053 43.1498 56.6584C43.1476 56.9116 43.2449 57.1555 43.4208 57.3376L45.3518 59.2686C45.5329 59.4496 45.7784 59.5513 46.0345 59.5513C46.2905 59.5513 46.536 59.4496 46.7171 59.2686L48.6481 57.3376ZM71.8205 57.9034L69.8895 55.9723C69.7084 55.7913 69.4629 55.6896 69.2069 55.6896C68.9509 55.6896 68.7053 55.7913 68.5243 55.9723L66.5932 57.9034C66.4174 58.0855 66.32 58.3293 66.3222 58.5825C66.3244 58.8357 66.426 59.0778 66.605 59.2568C66.784 59.4359 67.0262 59.5374 67.2793 59.5396C67.5325 59.5418 67.7764 59.4445 67.9585 59.2686L68.1255 59.1016C67.8066 61.3746 66.7594 63.4831 65.1408 65.1106C63.5223 66.7382 61.4197 67.7972 59.1485 68.1287C56.8772 68.4603 54.5596 68.0466 52.5434 66.9496C50.5271 65.8526 48.9209 64.1315 47.9655 62.0445C47.854 61.8193 47.659 61.6464 47.422 61.5627C47.1851 61.479 46.9248 61.4909 46.6966 61.596C46.4683 61.7011 46.29 61.891 46.1995 62.1255C46.1091 62.36 46.1136 62.6204 46.2121 62.8516C47.3596 65.353 49.2974 67.4079 51.7272 68.7C54.157 69.9922 56.9441 70.4499 59.6596 70.0029C62.375 69.5558 64.8683 68.2287 66.7556 66.2258C68.643 64.223 69.8197 61.6553 70.1048 58.9181L70.4553 59.2686C70.6374 59.4445 70.8813 59.5418 71.1344 59.5396C71.3876 59.5374 71.6298 59.4359 71.8088 59.2568C71.9878 59.0778 72.0893 58.8357 72.0915 58.5825C72.0937 58.3293 71.9964 58.0855 71.8205 57.9034Z" fill="#955BA5"/>
<path d="M57.6206 63.4139C57.8767 63.4139 58.1223 63.3122 58.3034 63.1311C58.4844 62.9501 58.5862 62.7045 58.5862 62.4484V56.0895L58.8691 56.3724C59.0512 56.5483 59.2951 56.6456 59.5482 56.6434C59.8014 56.6412 60.0435 56.5397 60.2225 56.3607C60.4016 56.1816 60.5031 55.9395 60.5053 55.6863C60.5075 55.4332 60.4102 55.1893 60.2343 55.0072L58.3033 53.0761C58.1222 52.8951 57.8767 52.7935 57.6206 52.7935C57.3646 52.7935 57.1191 52.8951 56.938 53.0761L55.007 55.0072C54.8311 55.1893 54.7338 55.4332 54.736 55.6863C54.7382 55.9395 54.8397 56.1816 55.0188 56.3607C55.1978 56.5397 55.4399 56.6412 55.6931 56.6434C55.9462 56.6456 56.1901 56.5483 56.3722 56.3724L56.6551 56.0895V62.4484C56.6551 62.7045 56.7569 62.9501 56.9379 63.1311C57.119 63.3122 57.3646 63.4139 57.6206 63.4139Z" fill="#3D324C"/>
<path d="M58.5862 20.931C58.5862 19.8646 57.7216 19 56.6552 19C55.5887 19 54.7241 19.8646 54.7241 20.931V24.7931C54.7241 25.8596 55.5887 26.7241 56.6552 26.7241C57.7216 26.7241 58.5862 25.8596 58.5862 24.7931V20.931Z" fill="#95A5A5"/>
<path d="M33.4827 20.931C33.4827 19.8646 32.6182 19 31.5517 19C30.4852 19 29.6207 19.8646 29.6207 20.931V24.7931C29.6207 25.8596 30.4852 26.7241 31.5517 26.7241C32.6182 26.7241 33.4827 25.8596 33.4827 24.7931V20.931Z" fill="#95A5A5"/>
</g>
<defs>
<clipPath id="clip0_6357_8642">
<rect width="56" height="56" fill="white" transform="translate(19 19)"/>
</clipPath>
</defs>
</svg>
