<svg width="94" height="94" viewBox="0 0 94 94" fill="none" xmlns="http://www.w3.org/2000/svg">
<rect width="93.655" height="94" rx="46.8275" fill="#EA8653"/>
<g clip-path="url(#clip0_6357_8659)">
<path d="M66.5653 24.535L62.3917 28.522C62.3057 28.6011 62.0335 28.7091 61.9147 28.7111H52.6523V30.8205H61.9147C62.613 30.8205 63.4462 30.4903 63.9412 30.0175L68.2988 25.8547C67.5915 25.5995 66.9852 25.138 66.5653 24.535ZM63.5382 73.6165L60.6973 70.9027C60.2023 70.4299 59.3691 70.0997 58.6708 70.0997H52.6523V72.2091H58.6704C58.7896 72.2111 59.0618 72.3189 59.1475 72.3979L61.873 75.0016C62.2645 74.3849 62.8466 73.9007 63.5382 73.6165ZM62.378 63.4071C62.378 63.0394 62.4393 62.685 62.5516 62.3524H52.6523V64.4618H62.5515C62.4364 64.1211 62.3778 63.7652 62.378 63.4071ZM64.2561 54.2327C64.2561 53.865 64.3173 53.5106 64.4297 53.178H52.6523V55.2874H64.4295C64.3145 54.9467 64.256 54.5908 64.2561 54.2327ZM55.875 44.4468C55.875 44.0789 55.9362 43.7246 56.0486 43.3921H52.6523V45.5014H56.0486C55.9334 45.1608 55.8749 44.8049 55.875 44.4468ZM75.5997 44.3636L66.8438 35.9993C66.3488 35.5265 65.5156 35.1963 64.8173 35.1963H52.6523V37.3057H64.8168C64.9359 37.3076 65.2083 37.4155 65.2939 37.4945L74.0442 45.8534C74.3892 45.214 74.9328 44.6933 75.5997 44.3636ZM55.3778 20.6748C55.3778 20.3069 55.4392 19.9527 55.5514 19.6201H52.6523V21.7295H55.5514C55.4363 21.3889 55.3777 21.0329 55.3778 20.6748Z" fill="#004777"/>
<path d="M58.9763 24.2573C56.9113 24.2573 55.2314 22.6501 55.2314 20.6745C55.2314 18.699 56.9115 17.0918 58.9763 17.0918C61.0415 17.0918 62.7213 18.699 62.7213 20.6745C62.7213 22.6503 61.0415 24.2573 58.9763 24.2573Z" fill="#FFC502"/>
<path d="M36.681 17.0083C36.2307 16.936 35.7749 16.8995 35.3183 16.8991C30.7705 16.8991 27.0838 20.4209 27.0838 24.7652C27.0838 25.1477 27.1138 25.5233 27.1691 25.8912C26.3583 25.644 25.5127 25.5183 24.662 25.5187C20.1142 25.5187 16.4276 29.0405 16.4276 33.3848C16.4265 34.6312 16.7366 35.8597 17.332 36.9673C13.481 38.7734 10.8292 42.5551 10.8292 46.9298C10.8292 51.3214 13.5012 55.1166 17.3766 56.9141C16.752 58.0429 16.4261 59.3017 16.4275 60.5799C16.4275 64.9242 20.1141 68.4459 24.6618 68.4459C25.5327 68.4459 26.3713 68.3157 27.1589 68.0765C27.1096 68.425 27.0844 68.7764 27.0837 69.1282C27.0837 73.4727 30.7704 76.9945 35.3181 76.9945C35.7864 76.9945 36.2452 76.9551 36.6922 76.8832C37.7404 79.7877 40.6247 81.875 44.0211 81.875C48.3026 81.875 51.7734 78.5595 51.7734 74.4694V19.39C51.7734 15.2999 48.3026 11.9844 44.0211 11.9844C40.6122 11.9844 37.7194 14.0871 36.681 17.0083Z" fill="#EF5050"/>
<g opacity="0.1">
<path d="M13.0264 49.4609C13.0264 45.4679 15.3608 41.8925 19.1182 40.1302C19.2058 40.0891 19.284 40.0316 19.3482 39.9612C19.4123 39.8907 19.4612 39.8087 19.4919 39.7198C19.5226 39.631 19.5345 39.5372 19.5269 39.4439C19.5194 39.3506 19.4925 39.2597 19.4478 39.1765C18.9017 38.159 18.6249 37.062 18.6249 35.9161C18.6249 31.9663 21.9902 28.7531 26.1268 28.7531C26.904 28.7531 27.6731 28.8674 28.4122 29.0927C28.5305 29.1288 28.6563 29.1354 28.7779 29.112C28.8996 29.0886 29.013 29.0359 29.1076 28.9588C29.2022 28.8818 29.2749 28.783 29.3189 28.6717C29.3628 28.5604 29.3766 28.4402 29.359 28.3223C29.3077 27.9826 29.2817 27.6399 29.2812 27.2966C29.2812 23.3469 32.6467 20.1335 36.7832 20.1335C37.1924 20.1335 37.6106 20.1671 38.0259 20.2333C38.197 20.2606 38.3727 20.2287 38.5217 20.1432C38.6706 20.0578 38.7831 19.9244 38.8391 19.7667C39.8059 17.0465 42.4771 15.2188 45.4859 15.2188C48.1951 15.2188 50.5493 16.6925 51.7191 18.8438C51.3908 15.0425 48.0595 12.0547 43.9954 12.0547C40.5866 12.0547 37.6936 14.1575 36.6554 17.0787C36.205 17.0063 35.7492 16.9698 35.2926 16.9694C30.7449 16.9694 27.0581 20.4912 27.0581 24.8355C27.0581 25.218 27.0882 25.5936 27.1434 25.9615C26.3326 25.7143 25.487 25.5886 24.6363 25.589C20.0886 25.589 16.402 29.1108 16.402 33.4551C16.4008 34.7015 16.711 35.93 17.3064 37.0376C13.4553 38.8436 10.8036 42.6254 10.8036 47C10.8036 50.5023 12.5042 53.6239 15.1582 55.6569C13.7947 53.9054 13.0264 51.7538 13.0264 49.4609Z" fill="#00003F"/>
</g>
<path d="M26.5109 50.6842C27.1178 50.6842 27.6095 50.2121 27.6095 49.6295C27.6095 49.0469 27.1178 48.5748 26.5109 48.5748H23.3597C21.3492 48.5748 19.7136 47.0146 19.7136 45.0969C19.7136 44.5143 19.2218 44.0422 18.6149 44.0422C18.008 44.0422 17.5163 44.5143 17.5163 45.0969C17.5163 48.1777 20.1376 50.6842 23.3597 50.6842H26.5109ZM21.827 61.7562C21.827 62.3388 22.3188 62.8109 22.9257 62.8109C23.5326 62.8109 24.0243 62.3388 24.0243 61.7562C24.0243 59.9552 25.5605 58.49 27.449 58.49H36.8345C37.4414 58.49 37.9331 58.0179 37.9331 57.4353C37.9331 56.8527 37.4414 56.3806 36.8345 56.3806H27.449C24.3491 56.3806 21.827 58.7919 21.827 61.7562ZM41.2292 58.49H45.7862C46.3931 58.49 46.8848 58.0179 46.8848 57.4353C46.8848 56.8527 46.3929 56.3806 45.7862 56.3806H41.2292C41.0849 56.3806 40.942 56.4079 40.8087 56.4609C40.6754 56.5139 40.5543 56.5916 40.4523 56.6895C40.3503 56.7874 40.2693 56.9037 40.2141 57.0317C40.1589 57.1597 40.1305 57.2968 40.1306 57.4353C40.1306 58.0179 40.6223 58.49 41.2292 58.49ZM31.2319 42.4112C30.625 42.4112 30.1333 42.8833 30.1333 43.4659C30.1333 44.0485 30.625 44.5206 31.2319 44.5206C35.6035 44.5206 39.1599 41.1209 39.1599 36.9419C39.1599 36.3594 38.6682 35.8872 38.0613 35.8872C37.4544 35.8872 36.9627 36.3594 36.9627 36.9419C36.9627 39.9577 34.3919 42.4112 31.2319 42.4112ZM36.0362 19.9432C33.4118 19.7814 31.1363 21.6915 30.9661 24.2025C30.951 24.4795 31.0503 24.7511 31.2423 24.9583C31.4343 25.1656 31.7036 25.2919 31.9919 25.3099C32.2802 25.328 32.5644 25.2363 32.7827 25.0547C33.0011 24.873 33.1362 24.6162 33.1588 24.3397C33.2502 22.9885 34.4777 21.9624 35.895 22.0482C36.5011 22.087 37.0229 21.6449 37.062 21.0635C37.0713 20.9253 37.0521 20.7867 37.0056 20.6555C36.959 20.5244 36.8861 20.4034 36.7908 20.2994C36.6956 20.1953 36.5799 20.1103 36.4504 20.0492C36.3209 19.9881 36.1802 19.952 36.0362 19.9432ZM32.3414 61.0769C31.7345 61.0769 31.2428 61.549 31.2428 62.1316C31.2428 62.7142 31.7345 63.1863 32.3414 63.1863C34.1556 63.1863 35.6316 64.5938 35.6316 66.3238C35.6316 68.0541 34.1556 69.4617 32.3414 69.4617C31.7345 69.4617 31.2428 69.9338 31.2428 70.5164C31.2428 71.099 31.7345 71.5711 32.3414 71.5711C35.3672 71.5711 37.8288 69.2173 37.8288 66.3238C37.8288 63.4309 35.3672 61.0769 32.3414 61.0769ZM43.5849 43.3898C42.9781 43.3898 42.4863 43.8619 42.4863 44.4445C42.4863 45.0271 42.9781 45.4992 43.5849 45.4992C46.254 45.4992 48.4254 43.4225 48.4254 40.87C48.4254 38.3176 46.254 36.241 43.5849 36.241C42.9781 36.241 42.4863 36.7131 42.4863 37.2957C42.4863 37.8783 42.9781 38.3504 43.5849 38.3504C45.0423 38.3504 46.2281 39.4806 46.2281 40.87C46.2281 42.2595 45.0423 43.3898 43.5849 43.3898ZM24.2316 42.419C27.947 42.419 30.9699 39.5291 30.9699 35.9769C30.9699 32.4249 27.947 29.5352 24.2316 29.5352C23.6247 29.5352 23.1329 30.0073 23.1329 30.5899C23.1329 31.1725 23.6247 31.6446 24.2316 31.6446C26.7356 31.6446 28.7726 33.588 28.7726 35.9769C28.7726 38.3659 26.7356 40.3096 24.2316 40.3096C23.9402 40.3096 23.6608 40.4207 23.4547 40.6185C23.2487 40.8163 23.1329 41.0846 23.1329 41.3643C23.1329 41.644 23.2487 41.9123 23.4547 42.1101C23.6608 42.3078 23.9402 42.419 24.2316 42.419Z" fill="#FB8276"/>
<path d="M43.9954 11C40.5064 11 37.3766 12.9522 35.9484 15.9372C35.7302 15.9222 35.5114 15.9146 35.2926 15.9146C30.2202 15.9146 26.0798 19.8023 25.9621 24.6243C25.523 24.5643 25.0799 24.5341 24.6363 24.5342C19.49 24.5342 15.3034 28.5361 15.3034 33.455C15.3034 34.5347 15.5007 35.5794 15.8909 36.5732C12.0495 38.7613 9.70502 42.6702 9.70502 47C9.70502 51.2782 12.1151 55.2731 15.9266 57.4456C15.5155 58.4679 15.3043 59.5542 15.3035 60.65C15.3035 65.569 19.4902 69.5707 24.6365 69.5707C25.0822 69.5707 25.5258 69.5405 25.9642 69.4805C26.1203 74.2696 30.2451 78.1193 35.2928 78.1193C35.5151 78.1193 35.7394 78.1113 35.9644 78.0956C37.4002 81.0609 40.5237 83 43.9954 83C48.8758 83 52.8464 79.2048 52.8464 74.5397V19.4603C52.8464 14.7952 48.876 11 43.9954 11ZM50.6492 19.5774H48.5361C47.9292 19.5774 47.4375 20.0495 47.4375 20.6321C47.4375 21.2147 47.9292 21.6868 48.5361 21.6868H50.6492V28.7109H41.7634C39.7529 28.7109 38.1173 27.1508 38.1173 25.2332C38.1173 24.6506 37.6255 24.1785 37.0186 24.1785C36.4118 24.1785 35.92 24.6506 35.92 25.2332C35.92 28.3139 38.5413 30.8202 41.7634 30.8202H50.6492V48.575H32.8282C32.2213 48.575 31.7295 49.0471 31.7295 49.6297C31.7295 50.2123 32.2213 50.6844 32.8282 50.6844H50.6492V65.1654H47.2542C44.1543 65.1654 41.6325 67.5767 41.6325 70.5408C41.6325 71.1234 42.1242 71.5955 42.7311 71.5955C43.338 71.5955 43.8297 71.1234 43.8297 70.5408C43.8297 68.7399 45.3659 67.2747 47.2542 67.2747H50.6492V74.5397C50.6492 74.7054 50.6404 74.8691 50.6273 75.0315H48.5361C47.9292 75.0315 47.4375 75.5036 47.4375 76.0862C47.4375 76.6688 47.9292 77.1409 48.5361 77.1409H50.0631C49.02 79.349 46.6935 80.8906 43.9954 80.8906C41.572 80.8906 39.3754 79.6354 38.2096 77.6741C39.5498 77.2537 40.773 76.5464 41.7867 75.6057C41.8905 75.5095 41.9736 75.3947 42.0312 75.2677C42.0888 75.1407 42.1198 75.0041 42.1223 74.8656C42.1249 74.7271 42.0991 74.5895 42.0463 74.4606C41.9934 74.3318 41.9147 74.2141 41.8145 74.1145C41.7144 74.0148 41.5948 73.935 41.4625 73.8796C41.3302 73.8243 41.1879 73.7946 41.0437 73.7921C40.8994 73.7896 40.7561 73.8144 40.6218 73.8651C40.4876 73.9158 40.365 73.9914 40.2612 74.0876C39.2381 75.0375 37.9413 75.6706 36.539 75.9049V75.909C36.521 75.911 35.6845 76.0101 35.2926 76.0101C31.3579 76.0101 28.1568 72.9545 28.1568 69.1985C28.1568 69.1025 28.1628 69.0028 28.1676 68.904C29.0544 68.5575 29.8875 68.0833 30.6305 67.4879C31.0963 67.1147 31.1585 66.4496 30.7696 66.0024C30.3807 65.5552 29.6877 65.4953 29.2222 65.8688C28.331 66.5813 27.2727 67.0751 26.1385 67.3075V67.3081C25.6447 67.4098 25.1412 67.4611 24.6362 67.4614C20.7016 67.4614 17.5005 64.4057 17.5005 60.65C17.5005 59.5311 17.7767 58.464 18.3214 57.4784C18.9797 56.285 19.9914 55.3055 21.2288 54.6634C21.3557 54.5974 21.4678 54.5081 21.5587 54.4006C21.6496 54.2931 21.7176 54.1694 21.7587 54.0366C21.7998 53.9039 21.8133 53.7646 21.7984 53.6269C21.7834 53.4891 21.7403 53.3555 21.6716 53.2338C21.603 53.1119 21.51 53.0043 21.398 52.9169C21.286 52.8296 21.1571 52.7644 21.0188 52.7249C20.8805 52.6854 20.7355 52.6725 20.592 52.6869C20.4484 52.7012 20.3093 52.7426 20.1825 52.8087C18.896 53.4771 17.7913 54.4268 16.9579 55.5809C13.8167 53.7667 11.9023 50.5589 11.9023 47C11.9023 43.9001 13.3597 41.0614 15.8159 39.182C16.0297 39.0236 16.2481 38.8711 16.4708 38.7245C18.163 37.6127 20.2115 36.9613 22.4163 36.9613C23.0232 36.9613 23.515 36.4893 23.515 35.9067C23.515 35.324 23.0232 34.852 22.4163 34.852C20.8674 34.8506 19.3312 35.1214 17.8838 35.651C17.6296 34.9447 17.5002 34.2025 17.5009 33.4551C17.5009 29.6992 20.7019 26.6437 24.6366 26.6437C25.3762 26.6437 26.1079 26.7524 26.8113 26.9668C26.9886 27.0209 27.1774 27.0309 27.3598 26.9958C27.5422 26.9607 27.7124 26.8817 27.8543 26.7662C27.9962 26.6507 28.1052 26.5024 28.1711 26.3354C28.237 26.1683 28.2576 25.988 28.231 25.8112C28.1823 25.4881 28.1576 25.162 28.1571 24.8355C28.1571 21.0797 31.3582 18.0241 35.2929 18.0241C35.6793 18.0241 36.0743 18.0559 36.4673 18.1179C39.8449 18.6542 42.4286 21.4615 42.4286 24.8355C42.4286 25.4181 42.9203 25.8902 43.5272 25.8902C44.1341 25.8902 44.6259 25.4181 44.6259 24.8355C44.6259 20.8837 41.9225 17.526 38.191 16.358C39.351 14.3777 41.5555 13.1094 43.9954 13.1094C47.6642 13.1094 50.6492 15.9584 50.6492 19.4603V19.5774Z" fill="#FB8276"/>
<path d="M75.8793 36.6529C73.8142 36.6529 72.1343 35.0456 72.1343 33.07C72.1343 31.0945 73.8144 29.4873 75.8793 29.4873C77.9443 29.4873 79.6244 31.0945 79.6244 33.07C79.6244 35.0456 77.9443 36.6529 75.8793 36.6529ZM79.5501 63.646C77.485 63.646 75.8051 62.0388 75.8051 60.0633C75.8051 58.0878 77.4851 56.4804 79.5501 56.4804C81.6151 56.4804 83.295 58.0876 83.295 60.0633C83.295 62.0389 81.6151 63.646 79.5501 63.646ZM59.4735 48.029C57.4084 48.029 55.7285 46.4218 55.7285 44.4463C55.7285 42.4706 57.4085 40.8634 59.4735 40.8634C61.5387 40.8634 63.2186 42.4706 63.2186 44.4463C63.2187 46.4219 61.5387 48.029 59.4735 48.029Z" fill="#FFC502"/>
<path d="M65.9766 66.9898C63.9114 66.9898 62.2316 65.3826 62.2316 63.4069C62.2316 61.4313 63.9116 59.8241 65.9766 59.8241C68.0417 59.8241 69.7216 61.4313 69.7216 63.4069C69.7216 65.3827 68.0417 66.9898 65.9766 66.9898ZM69.5619 26.2147C67.4969 26.2147 65.8171 24.6075 65.8171 22.6319C65.8171 20.6564 67.4971 19.0493 69.5619 19.0493C71.6271 19.0493 73.307 20.6565 73.307 22.6319C73.3071 24.6077 71.6271 26.2147 69.5619 26.2147ZM77.2452 51.0059C75.1801 51.0059 73.5002 49.3987 73.5002 47.4231C73.5002 45.4476 75.1802 43.8404 77.2452 43.8404C79.3103 43.8404 80.9902 45.4476 80.9902 47.4231C80.9902 49.3989 79.3102 51.0059 77.2452 51.0059ZM74.7695 74.6555C72.7043 74.6555 71.0244 73.0483 71.0244 71.0727C71.0244 69.0971 72.7045 67.4898 74.7695 67.4898C76.8346 67.4898 78.5145 69.0971 78.5145 71.0727C78.5145 73.0483 76.8346 74.6555 74.7695 74.6555Z" fill="#33C7CA"/>
<path d="M67.8546 57.8151C65.7895 57.8151 64.1096 56.2079 64.1096 54.2323C64.1096 52.2566 65.7896 50.6494 67.8546 50.6494C69.9198 50.6494 71.5996 52.2566 71.5996 54.2323C71.5998 56.2079 69.9198 57.8151 67.8546 57.8151ZM64.9522 80.3638C62.887 80.3638 61.2072 78.7566 61.2072 76.7809C61.2072 74.8053 62.8872 73.1981 64.9522 73.1981C67.0173 73.1981 68.6972 74.8053 68.6972 76.7809C68.6972 78.7566 67.0173 80.3638 64.9522 80.3638Z" fill="#FFC502"/>
</g>
<defs>
<clipPath id="clip0_6357_8659">
<rect width="75" height="72" fill="white" transform="translate(9 11)"/>
</clipPath>
</defs>
</svg>
