<svg width="94" height="94" viewBox="0 0 94 94" fill="none" xmlns="http://www.w3.org/2000/svg">
<rect width="93.655" height="94" rx="46.8275" fill="#EA8653"/>
<path d="M34.0888 28.3036L30.4493 24.6759C29.605 23.8344 28.4819 23.3711 27.2868 23.3711C26.0917 23.3711 24.9687 23.8345 24.1245 24.6759L21.4863 27.3058C19.7497 29.0366 19.7497 31.853 21.4863 33.5839L25.1335 37.2192C25.3029 37.3886 25.5044 37.5229 25.7262 37.6144C25.9481 37.7059 26.186 37.7529 26.4261 37.7525C26.8928 37.7525 27.3596 37.5756 27.7161 37.2219C28.43 36.5133 33.3733 31.58 34.0862 30.8724C34.8 30.1638 34.8012 29.0138 34.0888 28.3036Z" fill="#105C6E"/>
<path d="M47 16.3633C45.9915 16.3633 45.1739 17.1765 45.1739 18.1797V23.9922C45.1739 24.9953 45.9915 25.8086 47 25.8086C48.0085 25.8086 48.8261 24.9953 48.8261 23.9922V18.1797C48.8261 17.1765 48.0085 16.3633 47 16.3633Z" fill="#26879C"/>
<path d="M51.5044 16H42.4957C41.4872 16 40.6696 16.8133 40.6696 17.8164C40.6696 18.8195 41.4872 19.6328 42.4957 19.6328H51.5044C52.5129 19.6328 53.3305 18.8195 53.3305 17.8164C53.3305 16.8133 52.5129 16 51.5044 16Z" fill="#DE513C"/>
<path d="M47 16H42.4957C41.4872 16 40.6696 16.8133 40.6696 17.8164C40.6696 18.8195 41.4872 19.6328 42.4957 19.6328H47V16Z" fill="#FC6249"/>
<path d="M66.8003 30.3636C61.5117 25.0922 54.4798 22.189 47 22.189C39.5202 22.189 32.4883 25.0922 27.1997 30.3636C21.912 35.6341 19 42.6414 19 50.0945C19 57.5476 21.912 64.5549 27.1997 69.8254C32.4883 75.0969 39.5202 78.0001 47 78.0001C54.4798 78.0001 61.5117 75.0969 66.8003 69.8254C72.088 64.5549 75 57.5476 75 50.0945C75 42.6414 72.088 35.6341 66.8003 30.3636Z" fill="#DE513C"/>
<path d="M47 22.189C39.5202 22.189 32.4883 25.0922 27.1997 30.3636C21.912 35.6341 19 42.6414 19 50.0945C19 57.5476 21.912 64.5549 27.1997 69.8254C32.4883 75.0969 39.5202 78.0001 47 78.0001V22.189Z" fill="#FC6249"/>
<path d="M47 29.1431C35.4082 29.1431 25.9775 38.5416 25.9775 50.0941C25.9775 61.6466 35.4082 71.0452 47 71.0452C58.5918 71.0452 68.0225 61.6466 68.0225 50.0941C68.0225 38.5416 58.5918 29.1431 47 29.1431Z" fill="#96D1D9"/>
<path d="M47 29.1431C35.4082 29.1431 25.9775 38.5416 25.9775 50.0941C25.9775 61.6466 35.4082 71.0452 47 71.0452V29.1431Z" fill="#F4F2E6"/>
<path d="M47 33.6802C48.0085 33.6802 48.8261 32.8669 48.8261 31.8638V29.223C48.2241 29.1712 47.6153 29.1431 47 29.1431C46.3848 29.1431 45.7759 29.1712 45.1739 29.223V31.8638C45.1739 32.8669 45.9915 33.6802 47 33.6802ZM47 66.508C45.9915 66.508 45.1739 67.3212 45.1739 68.3244V70.9652C45.7759 71.017 46.3848 71.0451 47 71.0451C47.6153 71.0451 48.2241 71.017 48.8261 70.9652V68.3244C48.8261 67.3212 48.0085 66.508 47 66.508ZM67.9427 48.2777H65.3276C64.3191 48.2777 63.5015 49.091 63.5015 50.0941C63.5015 51.0972 64.3191 51.9105 65.3276 51.9105H67.9427C67.9945 51.3117 68.0225 50.7061 68.0225 50.0941C68.0225 49.4821 67.9945 48.8765 67.9427 48.2777ZM30.4986 50.0941C30.4986 49.091 29.681 48.2777 28.6725 48.2777H26.0574C26.0055 48.8765 25.9775 49.4821 25.9775 50.0941C25.9775 50.7061 26.0055 51.3117 26.0574 51.9105H28.6725C29.681 51.9105 30.4986 51.0972 30.4986 50.0941ZM51.5044 49.0458H48.9281V41.6994C48.9281 40.6963 48.1105 39.883 47.102 39.883C46.0936 39.883 45.276 40.6963 45.276 41.6994V50.8622C45.276 51.8653 46.0936 52.6786 47.102 52.6786H51.5044C52.5129 52.6786 53.3305 51.8653 53.3305 50.8622C53.3305 49.859 52.5129 49.0458 51.5044 49.0458Z" fill="#105C6E"/>
</svg>
