<svg width="94" height="94" viewBox="0 0 94 94" fill="none" xmlns="http://www.w3.org/2000/svg">
<rect width="93.655" height="94" rx="46.8275" fill="#EA8653"/>
<path d="M68.6769 64.1607L72.4885 55.8963C72.9588 54.8759 73.1053 53.736 72.9083 52.6299C72.7113 51.5238 72.1803 50.5045 71.3866 49.7093L65.9673 60.5478V53.3221C65.9673 51.326 64.3505 49.7093 62.3543 49.7093H59.6447C57.6485 49.7093 56.0318 51.326 56.0318 53.3221V56.0318L52.184 54.9298L49.7092 54.2253V47.4964C51.3892 45.7171 52.4189 43.3145 52.4189 40.6771C52.4189 40.6771 56.935 37.9675 56.935 33.4514V29.8386C56.935 23.8503 52.0847 19 46.0963 19H38.8705C32.8821 19 28.0318 23.8503 28.0318 29.8386V33.4514C28.0318 37.9675 32.5479 40.6771 32.5479 40.6771C32.5479 43.3145 33.5776 45.7171 35.2576 47.4964V54.2253L32.7827 54.9298L28.935 56.0318C24.0847 57.6485 18.9995 60.8459 18.9995 65.9671V74.9993H62.3543C64.3505 74.9993 65.9673 73.3825 65.9673 71.3864C65.9673 73.1928 67.9543 74.9993 70.4834 74.9993C73.0124 74.9993 74.9995 72.8135 74.9995 70.0316C74.9995 66.8703 73.1931 63.2575 68.6769 64.1607ZM70.4834 71.3864C69.9866 71.3864 69.5802 70.5735 69.5802 69.58C69.5802 68.5864 69.9866 67.7735 70.4834 67.7735C70.9802 67.7735 71.3866 68.5864 71.3866 69.58C71.3866 70.5735 70.9802 71.3864 70.4834 71.3864Z" fill="#E8D3AF"/>
<path d="M68.6779 64.1612C73.1941 63.258 75.0005 66.8708 75.0005 70.0321C75.0005 72.814 73.0134 74.9998 70.4844 74.9998C67.9554 74.9998 65.9683 73.1933 65.9683 71.3869V60.5483L68.6779 64.1612ZM71.3876 69.5805C71.3876 68.5869 70.9812 67.7741 70.4844 67.7741C69.9876 67.7741 69.5812 68.5869 69.5812 69.5805C69.5812 70.574 69.9876 71.3869 70.4844 71.3869C70.9812 71.3869 71.3876 70.574 71.3876 69.5805Z" fill="#999999"/>
<path d="M72.9954 53.5933C72.9954 54.3791 72.8328 55.1559 72.4896 55.8965L68.6779 64.1609L65.9683 60.548L71.3876 49.7095C72.4167 50.7401 72.9948 52.1369 72.9954 53.5933Z" fill="#B3B3B3"/>
<path d="M65.9662 71.3866C65.9662 73.3827 64.3495 74.9995 62.3533 74.9995H59.6437C57.6475 74.9995 56.0308 73.3827 56.0308 71.3866V53.3223C56.0308 51.3262 57.6475 49.7095 59.6437 49.7095H62.3533C64.3495 49.7095 65.9662 51.3262 65.9662 53.3223H59.6437V71.3866H65.9662Z" fill="#D74C4C"/>
<path d="M56.0319 56.0301L52.419 67.7719H47.9029L52.1842 54.9282L56.0319 56.0301ZM37.0642 71.3848H47.9029V74.9976H37.0642V71.3848Z" fill="#C4804D"/>
<path d="M52.4187 67.7715L56.0316 74.9972H47.9026V71.3843H37.0638V74.9972H28.9348L32.5477 67.7715H47.9026H52.4187Z" fill="#AE672B"/>
<path d="M32.7826 54.9282L37.0638 67.7719H32.5477L28.9348 56.0301L32.7826 54.9282Z" fill="#C4804D"/>
<path d="M49.7082 47.4953V54.2243L45.1921 56.9339L46.9985 59.6436L42.4824 67.7725L37.9662 59.6436L39.7727 56.9339L35.2566 54.2243V47.4953C37.063 49.4192 39.6282 50.6114 42.4824 50.6114C46.9985 50.6114 49.645 47.5676 49.7082 47.4953ZM32.5469 32.5472V40.6761C32.5469 40.6761 28.0308 37.9664 28.0308 33.4504C28.0308 32.5472 28.2837 31.8697 28.6901 31.4181C29.0966 30.9665 29.6656 30.7407 30.2888 30.7407C30.9121 30.7407 31.4811 30.9665 31.8875 31.3007C32.294 31.6439 32.5469 32.0955 32.5469 32.5472ZM56.2746 31.4181C56.6811 31.8697 56.934 32.5472 56.934 33.4504C56.934 37.9664 52.4179 40.6761 52.4179 40.6761V32.5472C52.4179 32.0955 52.6708 31.6439 53.0772 31.3007C53.4837 30.9665 54.0527 30.7407 54.6759 30.7407C55.2991 30.7407 55.8682 30.9665 56.2746 31.4181Z" fill="#E09B8D"/>
<path d="M30.2888 30.7418C29.6656 30.7418 29.0966 30.9676 28.6901 31.4192C28.2837 31.8708 28.0308 32.5482 28.0308 33.4514V29.8386C28.0308 23.8503 32.8811 19 38.8695 19H46.0953C52.0837 19 56.934 23.8503 56.934 29.8386V33.4514C56.934 32.5482 56.6811 31.8708 56.2746 31.4192C55.8682 30.9676 55.2991 30.7418 54.6759 30.7418C54.0527 30.7418 53.4837 30.9676 53.0772 31.3018C52.6708 31.645 52.4179 32.0966 52.4179 32.5482C44.2888 34.3546 47.9469 29.8295 45.1921 28.9354C43.8643 28.5018 42.4824 29.8386 42.4824 29.8386C42.4824 29.8386 41.1004 28.5018 39.7727 28.9354C37.0179 29.8295 39.7727 34.3546 32.5469 32.5482C32.5469 32.0966 32.294 31.645 31.8875 31.3018C31.4811 30.9676 30.9121 30.7418 30.2888 30.7418Z" fill="#666666"/>
<path d="M35.2583 47.4957C33.5783 45.7164 32.5486 43.3138 32.5486 40.6764V32.5475C39.7744 34.3539 37.0196 29.8288 39.7744 28.9347C41.1021 28.5011 42.4841 29.8379 42.4841 29.8379C42.4841 29.8379 43.866 28.5011 45.1937 28.9347C47.9486 29.8288 44.2905 34.3539 52.4196 32.5475V40.6764C52.4196 43.3138 51.3899 45.7164 49.7099 47.4957C49.6466 47.568 47.0002 50.6118 42.4841 50.6118C39.6299 50.6118 37.0647 49.4196 35.2583 47.4957Z" fill="#F4BAA6"/>
<path d="M42.4828 42.4848C42.2432 42.4848 42.0135 42.3897 41.8441 42.2203C41.6747 42.0509 41.5796 41.8212 41.5796 41.5816V38.872C41.5796 38.6324 41.6747 38.4027 41.8441 38.2333C42.0135 38.0639 42.2432 37.9688 42.4828 37.9688C42.7223 37.9688 42.9521 38.0639 43.1215 38.2333C43.2908 38.4027 43.386 38.6324 43.386 38.872V41.5816C43.386 41.8212 43.2908 42.0509 43.1215 42.2203C42.9521 42.3897 42.7223 42.4848 42.4828 42.4848ZM42.4828 46.0977C40.3629 46.0977 39.2538 45.049 39.1345 44.9298C38.964 44.7617 38.8672 44.5326 38.8655 44.2931C38.8638 44.0536 38.9573 43.8232 39.1255 43.6527C39.2937 43.4821 39.5227 43.3853 39.7622 43.3837C40.0017 43.382 40.2321 43.4755 40.4027 43.6436C40.4496 43.6861 41.1307 44.2912 42.4828 44.2912C43.8548 44.2912 44.5358 43.6689 44.5647 43.6427C44.738 43.4798 44.9682 43.3913 45.2059 43.3962C45.4437 43.4011 45.6701 43.499 45.8365 43.6689C46.0017 43.8375 46.0937 44.0645 46.0927 44.3005C46.0917 44.5365 45.9977 44.7626 45.831 44.9298C45.7118 45.049 44.6027 46.0977 42.4828 46.0977Z" fill="#E09B8D"/>
<path d="M52.3562 27.1292C52.1979 27.1295 52.0424 27.0881 51.9052 27.0092C51.768 26.9302 51.6541 26.8165 51.5749 26.6794C51.0168 25.7204 50.2176 24.924 49.2567 24.3691C48.2958 23.8143 47.2064 23.5203 46.0968 23.5164C45.8573 23.5164 45.6275 23.4212 45.4582 23.2518C45.2888 23.0825 45.1936 22.8527 45.1936 22.6132C45.1936 22.3736 45.2888 22.1439 45.4582 21.9745C45.6275 21.8051 45.8573 21.71 46.0968 21.71C47.5226 21.7144 48.9225 22.0916 50.1574 22.8043C51.3924 23.517 52.4194 24.5403 53.1366 25.7726C53.2164 25.9098 53.2587 26.0656 53.2591 26.2243C53.2596 26.383 53.2182 26.539 53.1392 26.6767C53.0602 26.8143 52.9463 26.9287 52.809 27.0083C52.6717 27.0879 52.5158 27.1299 52.3571 27.1301L52.3562 27.1292Z" fill="#4D4D4D"/>
<path d="M25.3224 67.7715C25.0829 67.7715 24.8531 67.8666 24.6837 68.036C24.5144 68.2054 24.4192 68.4352 24.4192 68.6747V74.9972H26.2256V68.6747C26.2256 68.4352 26.1305 68.2054 25.9611 68.036C25.7917 67.8666 25.562 67.7715 25.3224 67.7715Z" fill="#D6B58E"/>
<path d="M45.6446 37.9684C46.3929 37.9684 46.9995 37.3619 46.9995 36.6136C46.9995 35.8654 46.3929 35.2588 45.6446 35.2588C44.8964 35.2588 44.2898 35.8654 44.2898 36.6136C44.2898 37.3619 44.8964 37.9684 45.6446 37.9684Z" fill="#995E55"/>
<path d="M39.3231 37.9684C40.0714 37.9684 40.6779 37.3619 40.6779 36.6136C40.6779 35.8654 40.0714 35.2588 39.3231 35.2588C38.5748 35.2588 37.9683 35.8654 37.9683 36.6136C37.9683 37.3619 38.5748 37.9684 39.3231 37.9684Z" fill="#995E55"/>
<path d="M59.6445 56.0308H65.9671V57.8372H59.6445V56.0308ZM59.6445 59.6436H65.9671V61.45H59.6445V59.6436ZM59.6445 63.2565H65.9671V65.0629H59.6445V63.2565ZM59.6445 66.8693H65.9671V68.6758H59.6445V66.8693Z" fill="#D6B58E"/>
</svg>
