<svg width="46" height="52" viewBox="0 0 46 52" fill="none" xmlns="http://www.w3.org/2000/svg">
<path d="M1.37883 0.950195C1.12442 1.1405 0.916251 1.39005 0.770918 1.67893C0.625584 1.9678 0.547109 2.28803 0.541748 2.61407V49.3747C0.541748 50.0696 0.884748 50.6582 1.38087 51.0449L26.573 25.9997L1.37883 0.950195Z" fill="#29B6F6"/>
<path d="M1.37883 0.950195C1.12442 1.1405 0.916251 1.39005 0.770918 1.67893C0.625584 1.9678 0.547109 2.28803 0.541748 2.61407V49.3747C0.541748 50.0696 0.884748 50.6582 1.38087 51.0449L26.573 25.9997L1.37883 0.950195Z" fill="url(#paint0_linear_6060_794)"/>
<path d="M34.3314 18.2866C24.0047 12.3154 11.1789 5.00538 3.52674 0.744753C2.78357 0.330378 1.97099 0.487628 1.37891 0.950878L26.5731 26.0004L34.3314 18.2866Z" fill="#00E676"/>
<path d="M34.3314 18.2866C24.0047 12.3154 11.1789 5.00538 3.52674 0.744753C2.78357 0.330378 1.97099 0.487628 1.37891 0.950878L26.5731 26.0004L34.3314 18.2866Z" fill="url(#paint1_linear_6060_794)"/>
<path d="M1.38086 51.0452C1.72278 51.3303 2.14542 51.4901 2.5834 51.5C2.90598 51.5 3.22448 51.415 3.52869 51.245C11.1788 46.9844 24.0005 39.6744 34.3232 33.7074L26.5709 26L1.38086 51.0452Z" fill="#F44336"/>
<path d="M1.38086 51.0452C1.72278 51.3303 2.14542 51.4901 2.5834 51.5C2.90598 51.5 3.22448 51.415 3.52869 51.245C11.1788 46.9844 24.0005 39.6744 34.3232 33.7074L26.5709 26L1.38086 51.0452Z" fill="url(#paint2_linear_6060_794)"/>
<path d="M44.4192 24.1618C41.0639 22.1897 37.7012 20.2311 34.3313 18.2861L26.573 25.9999L34.3252 33.7073C37.6978 31.7609 41.0632 29.8009 44.4212 27.8274C45.0623 27.4491 45.4605 26.7479 45.4605 25.9935C45.4605 25.2391 45.0623 24.5379 44.4212 24.1618H44.4192Z" fill="#FFEA00"/>
<path d="M44.4192 24.1618C41.0639 22.1897 37.7012 20.2311 34.3313 18.2861L26.573 25.9999L34.3252 33.7073C37.6978 31.7609 41.0632 29.8009 44.4212 27.8274C45.0623 27.4491 45.4605 26.7479 45.4605 25.9935C45.4605 25.2391 45.0623 24.5379 44.4212 24.1618H44.4192Z" fill="url(#paint3_linear_6060_794)"/>
<path opacity="0.2" d="M3.38379 1.2755C13.9596 7.11925 34.364 18.7196 44.5805 24.693C44.9418 24.9087 45.231 25.2342 45.4094 25.6259C45.3578 25.3211 45.2423 25.032 45.0711 24.779C44.9 24.5259 44.6774 24.3152 44.4192 24.1617C34.2803 18.1884 14.025 6.588 3.52874 0.74425C2.27516 0.0472497 0.821495 0.93975 0.588745 2.25725C1.06854 1.25212 2.29966 0.67625 3.38379 1.2755Z" fill="white"/>
<path opacity="0.1" d="M3.38366 50.7244C13.9595 44.8806 34.3639 33.2803 44.5804 27.3069C44.9417 27.0912 45.2309 26.7657 45.4093 26.374C45.3576 26.6788 45.2421 26.9679 45.071 27.2209C44.8999 27.474 44.6773 27.6847 44.4191 27.8381C34.2802 33.8115 14.0248 45.4119 3.52862 51.2556C2.27504 51.9527 0.821373 51.0602 0.588623 49.7426C1.06841 50.7478 2.29954 51.3237 3.38366 50.7244Z" fill="black"/>
<path d="M44.4192 24.1595C41.6711 22.5402 11.1809 5.0005 3.52871 0.73987C2.7835 0.325495 1.97091 0.482745 1.37883 0.945995C1.12442 1.1363 0.916251 1.38585 0.770918 1.67473C0.625584 1.9636 0.547109 2.28383 0.541748 2.60987V49.3747C0.541748 50.0675 0.884748 50.6582 1.38087 51.045C1.7228 51.33 2.14544 51.4899 2.58341 51.4997C2.906 51.4997 3.2245 51.4147 3.52871 51.2447C11.1788 46.9841 41.6691 29.4422 44.4172 27.8251C44.7308 27.6424 44.9922 27.3764 45.1747 27.0543C45.3573 26.7321 45.4545 26.3653 45.4564 25.9912C45.4543 25.6175 45.3571 25.2511 45.1745 24.9293C44.9919 24.6075 44.7326 24.3418 44.4192 24.1595Z" fill="url(#paint4_linear_6060_794)"/>
<defs>
<linearGradient id="paint0_linear_6060_794" x1="13.5574" y1="4.94732" x2="13.5574" y2="38.7561" gradientUnits="userSpaceOnUse">
<stop stop-color="#00B8D4" stop-opacity="0"/>
<stop offset="1" stop-color="white" stop-opacity="0.3"/>
</linearGradient>
<linearGradient id="paint1_linear_6060_794" x1="-0.750552" y1="5.70238" x2="33.1618" y2="20.8957" gradientUnits="userSpaceOnUse">
<stop stop-color="white" stop-opacity="0.2"/>
<stop offset="1" stop-color="white" stop-opacity="0"/>
</linearGradient>
<linearGradient id="paint2_linear_6060_794" x1="13.7819" y1="38.1401" x2="22.2497" y2="46.2758" gradientUnits="userSpaceOnUse">
<stop stop-opacity="0.1"/>
<stop offset="1" stop-opacity="0"/>
</linearGradient>
<linearGradient id="paint3_linear_6060_794" x1="31.5016" y1="20.868" x2="41.7508" y2="30.7153" gradientUnits="userSpaceOnUse">
<stop stop-opacity="0.05"/>
<stop offset="1" stop-opacity="0"/>
</linearGradient>
<linearGradient id="paint4_linear_6060_794" x1="-7.85359" y1="20.9189" x2="38.6097" y2="41.7349" gradientUnits="userSpaceOnUse">
<stop stop-color="white" stop-opacity="0.2"/>
<stop offset="1" stop-color="white" stop-opacity="0"/>
</linearGradient>
</defs>
</svg>
