<svg width="33" height="34" viewBox="0 0 33 34" fill="none" xmlns="http://www.w3.org/2000/svg">
<path d="M16.5 0.5C7.4025 0.5 0 7.9025 0 17C0 26.0975 7.4025 33.5 16.5 33.5C25.5975 33.5 33 26.0975 33 17C33 7.9025 25.5975 0.5 16.5 0.5Z" fill="#EA8653"/>
<path d="M25.1393 17.9765L20.6393 23.2265C20.5112 23.3762 20.3548 23.4992 20.1792 23.5884C20.0035 23.6777 19.812 23.7314 19.6155 23.7465C19.4191 23.7616 19.2216 23.7378 19.0343 23.6765C18.847 23.6152 18.6737 23.5176 18.5243 23.3892C18.2221 23.1305 18.0351 22.7622 18.0045 22.3656C17.9738 21.969 18.102 21.5764 18.3608 21.2742L20.7383 18.5H9C8.60218 18.5 8.22064 18.342 7.93934 18.0607C7.65804 17.7793 7.5 17.3978 7.5 17C7.5 16.6022 7.65804 16.2206 7.93934 15.9393C8.22064 15.658 8.60218 15.5 9 15.5H20.7383L18.3608 12.7265C18.1018 12.4243 17.9734 12.0317 18.0039 11.6349C18.0345 11.2381 18.2214 10.8697 18.5235 10.6107C18.6731 10.4825 18.8465 10.385 19.0338 10.3238C19.2211 10.2626 19.4186 10.2388 19.6151 10.2539C20.0119 10.2845 20.3803 10.4713 20.6393 10.7735L25.1393 16.0235C25.3724 16.2954 25.5006 16.6418 25.5006 17C25.5006 17.3582 25.3724 17.7046 25.1393 17.9765Z" fill="white"/>
</svg>
